<mxfile host="Electron" agent="Mozilla/5.0 (Windows NT 10.0; Win64; x64) AppleWebKit/537.36 (KHTML, like Gecko) draw.io/24.7.17 Chrome/128.0.6613.36 Electron/32.0.1 Safari/537.36" version="24.7.17">
  <diagram name="Page-1" id="Y1iWMV8WZuOJa0O4Jppz">
    <mxGraphModel dx="1326" dy="784" grid="1" gridSize="10" guides="1" tooltips="1" connect="1" arrows="1" fold="1" page="1" pageScale="1" pageWidth="850" pageHeight="1100" math="0" shadow="0">
      <root>
        <mxCell id="0" />
        <mxCell id="1" parent="0" />
        <mxCell id="PVFEniCqXc0Eb_ZrgXYD-1" value="" style="rounded=0;whiteSpace=wrap;html=1;labelBackgroundColor=none;fillColor=#FAE5C7;strokeColor=#0F8B8D;fontColor=#143642;" vertex="1" parent="1">
          <mxGeometry x="20" y="210" width="760" height="520" as="geometry" />
        </mxCell>
        <mxCell id="PVFEniCqXc0Eb_ZrgXYD-5" value="" style="edgeStyle=orthogonalEdgeStyle;rounded=0;orthogonalLoop=1;jettySize=auto;html=1;labelBackgroundColor=none;strokeColor=#A8201A;fontColor=default;" edge="1" parent="1" source="PVFEniCqXc0Eb_ZrgXYD-3" target="PVFEniCqXc0Eb_ZrgXYD-4">
          <mxGeometry relative="1" as="geometry" />
        </mxCell>
        <mxCell id="PVFEniCqXc0Eb_ZrgXYD-3" value="&lt;b&gt;API Gateway&lt;/b&gt;" style="rounded=0;whiteSpace=wrap;html=1;labelBackgroundColor=none;fillColor=#FAE5C7;strokeColor=#0F8B8D;fontColor=#143642;" vertex="1" parent="1">
          <mxGeometry x="40" y="375" width="120" height="60" as="geometry" />
        </mxCell>
        <mxCell id="PVFEniCqXc0Eb_ZrgXYD-4" value="&lt;b&gt;Auth Server&lt;/b&gt;" style="whiteSpace=wrap;html=1;rounded=0;labelBackgroundColor=none;fillColor=#FAE5C7;strokeColor=#0F8B8D;fontColor=#143642;" vertex="1" parent="1">
          <mxGeometry x="40" y="470" width="120" height="60" as="geometry" />
        </mxCell>
        <mxCell id="PVFEniCqXc0Eb_ZrgXYD-6" value="" style="image;sketch=0;aspect=fixed;html=1;points=[];align=center;fontSize=12;image=img/lib/mscae/Docker.svg;labelBackgroundColor=none;fillColor=#FAE5C7;strokeColor=#0F8B8D;fontColor=#143642;" vertex="1" parent="1">
          <mxGeometry x="130" y="509" width="50" height="41" as="geometry" />
        </mxCell>
        <mxCell id="PVFEniCqXc0Eb_ZrgXYD-7" value="" style="rounded=0;whiteSpace=wrap;html=1;labelBackgroundColor=none;fillColor=#FAE5C7;strokeColor=#0F8B8D;fontColor=#143642;" vertex="1" parent="1">
          <mxGeometry x="190" y="260" width="540" height="390" as="geometry" />
        </mxCell>
        <mxCell id="PVFEniCqXc0Eb_ZrgXYD-11" style="edgeStyle=orthogonalEdgeStyle;rounded=0;orthogonalLoop=1;jettySize=auto;html=1;entryX=0;entryY=0.5;entryDx=0;entryDy=0;labelBackgroundColor=none;strokeColor=#A8201A;fontColor=default;" edge="1" parent="1" source="PVFEniCqXc0Eb_ZrgXYD-8" target="PVFEniCqXc0Eb_ZrgXYD-9">
          <mxGeometry relative="1" as="geometry" />
        </mxCell>
        <mxCell id="PVFEniCqXc0Eb_ZrgXYD-21" style="rounded=0;orthogonalLoop=1;jettySize=auto;html=1;entryX=0.5;entryY=1;entryDx=0;entryDy=0;exitX=1;exitY=0.5;exitDx=0;exitDy=0;labelBackgroundColor=none;strokeColor=#A8201A;fontColor=default;" edge="1" parent="1" source="PVFEniCqXc0Eb_ZrgXYD-3" target="PVFEniCqXc0Eb_ZrgXYD-8">
          <mxGeometry relative="1" as="geometry">
            <mxPoint x="310" y="650" as="sourcePoint" />
          </mxGeometry>
        </mxCell>
        <mxCell id="PVFEniCqXc0Eb_ZrgXYD-8" value="&lt;b&gt;Product Service&lt;/b&gt;" style="rounded=0;whiteSpace=wrap;html=1;labelBackgroundColor=none;fillColor=#FAE5C7;strokeColor=#0F8B8D;fontColor=#143642;" vertex="1" parent="1">
          <mxGeometry x="210" y="270" width="120" height="60" as="geometry" />
        </mxCell>
        <mxCell id="PVFEniCqXc0Eb_ZrgXYD-9" value="&lt;b&gt;MongoDB&lt;/b&gt;" style="shape=datastore;whiteSpace=wrap;html=1;labelBackgroundColor=none;fillColor=#FAE5C7;strokeColor=#0F8B8D;fontColor=#143642;" vertex="1" parent="1">
          <mxGeometry x="380" y="270" width="60" height="60" as="geometry" />
        </mxCell>
        <mxCell id="PVFEniCqXc0Eb_ZrgXYD-10" value="" style="image;sketch=0;aspect=fixed;html=1;points=[];align=center;fontSize=12;image=img/lib/mscae/Docker.svg;labelBackgroundColor=none;fillColor=#FAE5C7;strokeColor=#0F8B8D;fontColor=#143642;" vertex="1" parent="1">
          <mxGeometry x="410" y="310" width="50" height="41" as="geometry" />
        </mxCell>
        <mxCell id="PVFEniCqXc0Eb_ZrgXYD-12" value="&lt;font style=&quot;font-size: 18px;&quot;&gt;&lt;b&gt;kafka&lt;/b&gt;&lt;/font&gt;" style="text;html=1;align=center;verticalAlign=middle;whiteSpace=wrap;rounded=0;labelBackgroundColor=none;fontColor=#143642;" vertex="1" parent="1">
          <mxGeometry x="500" y="270" width="60" height="30" as="geometry" />
        </mxCell>
        <mxCell id="PVFEniCqXc0Eb_ZrgXYD-24" value="" style="rounded=0;orthogonalLoop=1;jettySize=auto;html=1;entryX=0;entryY=0.5;entryDx=0;entryDy=0;labelBackgroundColor=none;strokeColor=#A8201A;fontColor=default;" edge="1" parent="1" source="PVFEniCqXc0Eb_ZrgXYD-13" target="PVFEniCqXc0Eb_ZrgXYD-23">
          <mxGeometry relative="1" as="geometry" />
        </mxCell>
        <mxCell id="PVFEniCqXc0Eb_ZrgXYD-26" style="rounded=0;orthogonalLoop=1;jettySize=auto;html=1;exitX=1;exitY=0.5;exitDx=0;exitDy=0;entryX=0;entryY=0.5;entryDx=0;entryDy=0;labelBackgroundColor=none;strokeColor=#A8201A;fontColor=default;" edge="1" parent="1" source="PVFEniCqXc0Eb_ZrgXYD-13" target="PVFEniCqXc0Eb_ZrgXYD-25">
          <mxGeometry relative="1" as="geometry" />
        </mxCell>
        <mxCell id="PVFEniCqXc0Eb_ZrgXYD-28" style="edgeStyle=orthogonalEdgeStyle;rounded=0;orthogonalLoop=1;jettySize=auto;html=1;exitX=0.5;exitY=1;exitDx=0;exitDy=0;labelBackgroundColor=none;strokeColor=#A8201A;fontColor=default;" edge="1" parent="1" source="PVFEniCqXc0Eb_ZrgXYD-13" target="PVFEniCqXc0Eb_ZrgXYD-27">
          <mxGeometry relative="1" as="geometry" />
        </mxCell>
        <mxCell id="PVFEniCqXc0Eb_ZrgXYD-35" value="" style="edgeStyle=orthogonalEdgeStyle;rounded=0;orthogonalLoop=1;jettySize=auto;html=1;labelBackgroundColor=none;strokeColor=#A8201A;fontColor=default;" edge="1" parent="1" source="PVFEniCqXc0Eb_ZrgXYD-13" target="PVFEniCqXc0Eb_ZrgXYD-29">
          <mxGeometry relative="1" as="geometry" />
        </mxCell>
        <mxCell id="PVFEniCqXc0Eb_ZrgXYD-13" value="&lt;b&gt;Order Service&lt;/b&gt;" style="rounded=0;whiteSpace=wrap;html=1;labelBackgroundColor=none;fillColor=#FAE5C7;strokeColor=#0F8B8D;fontColor=#143642;" vertex="1" parent="1">
          <mxGeometry x="250" y="389" width="120" height="60" as="geometry" />
        </mxCell>
        <mxCell id="PVFEniCqXc0Eb_ZrgXYD-22" style="rounded=0;orthogonalLoop=1;jettySize=auto;html=1;exitX=1;exitY=0.5;exitDx=0;exitDy=0;entryX=0;entryY=0.5;entryDx=0;entryDy=0;labelBackgroundColor=none;strokeColor=#A8201A;fontColor=default;" edge="1" parent="1" source="PVFEniCqXc0Eb_ZrgXYD-3" target="PVFEniCqXc0Eb_ZrgXYD-13">
          <mxGeometry relative="1" as="geometry">
            <mxPoint x="380" y="340" as="sourcePoint" />
            <mxPoint x="370" y="730" as="targetPoint" />
          </mxGeometry>
        </mxCell>
        <mxCell id="PVFEniCqXc0Eb_ZrgXYD-23" value="&lt;b&gt;Notification Service&lt;/b&gt;" style="whiteSpace=wrap;html=1;rounded=0;labelBackgroundColor=none;fillColor=#FAE5C7;strokeColor=#0F8B8D;fontColor=#143642;" vertex="1" parent="1">
          <mxGeometry x="490" y="369" width="120" height="60" as="geometry" />
        </mxCell>
        <mxCell id="PVFEniCqXc0Eb_ZrgXYD-38" style="edgeStyle=orthogonalEdgeStyle;rounded=0;orthogonalLoop=1;jettySize=auto;html=1;exitX=0.5;exitY=1;exitDx=0;exitDy=0;entryX=0.5;entryY=0;entryDx=0;entryDy=0;labelBackgroundColor=none;strokeColor=#A8201A;fontColor=default;" edge="1" parent="1" source="PVFEniCqXc0Eb_ZrgXYD-25" target="PVFEniCqXc0Eb_ZrgXYD-36">
          <mxGeometry relative="1" as="geometry" />
        </mxCell>
        <mxCell id="PVFEniCqXc0Eb_ZrgXYD-25" value="&lt;b&gt;Inventory Service&lt;/b&gt;" style="whiteSpace=wrap;html=1;rounded=0;labelBackgroundColor=none;fillColor=#FAE5C7;strokeColor=#0F8B8D;fontColor=#143642;" vertex="1" parent="1">
          <mxGeometry x="500" y="449" width="120" height="60" as="geometry" />
        </mxCell>
        <mxCell id="PVFEniCqXc0Eb_ZrgXYD-27" value="&lt;b&gt;MySQL&lt;/b&gt;" style="shape=datastore;whiteSpace=wrap;html=1;labelBackgroundColor=none;fillColor=#FAE5C7;strokeColor=#0F8B8D;fontColor=#143642;" vertex="1" parent="1">
          <mxGeometry x="280" y="470" width="60" height="60" as="geometry" />
        </mxCell>
        <mxCell id="PVFEniCqXc0Eb_ZrgXYD-29" value="" style="image;sketch=0;aspect=fixed;html=1;points=[];align=center;fontSize=12;image=img/lib/mscae/Docker.svg;labelBackgroundColor=none;fillColor=#FAE5C7;strokeColor=#0F8B8D;fontColor=#143642;" vertex="1" parent="1">
          <mxGeometry x="310" y="509" width="50" height="41" as="geometry" />
        </mxCell>
        <mxCell id="PVFEniCqXc0Eb_ZrgXYD-32" value="&lt;b&gt;async communiction&lt;/b&gt;" style="text;html=1;align=center;verticalAlign=middle;whiteSpace=wrap;rounded=0;labelBackgroundColor=none;fontColor=#143642;" vertex="1" parent="1">
          <mxGeometry x="367" y="369" width="130" height="30" as="geometry" />
        </mxCell>
        <mxCell id="PVFEniCqXc0Eb_ZrgXYD-33" value="&lt;div&gt;&lt;b style=&quot;background-color: initial;&quot;&gt;sync communiction&lt;/b&gt;&lt;br&gt;&lt;/div&gt;" style="text;html=1;align=center;verticalAlign=middle;whiteSpace=wrap;rounded=0;labelBackgroundColor=none;fontColor=#143642;" vertex="1" parent="1">
          <mxGeometry x="360" y="460" width="130" height="30" as="geometry" />
        </mxCell>
        <mxCell id="PVFEniCqXc0Eb_ZrgXYD-34" value="" style="shadow=0;dashed=0;html=1;labelPosition=center;verticalLabelPosition=bottom;verticalAlign=top;align=center;outlineConnect=0;shape=mxgraph.veeam.2d.letter;labelBackgroundColor=none;fillColor=#dae8fc;strokeColor=#6c8ebf;" vertex="1" parent="1">
          <mxGeometry x="590" y="356" width="30" height="19" as="geometry" />
        </mxCell>
        <mxCell id="PVFEniCqXc0Eb_ZrgXYD-36" value="&lt;b&gt;MySQL&lt;/b&gt;" style="shape=datastore;whiteSpace=wrap;html=1;labelBackgroundColor=none;fillColor=#FAE5C7;strokeColor=#0F8B8D;fontColor=#143642;" vertex="1" parent="1">
          <mxGeometry x="530" y="528" width="60" height="60" as="geometry" />
        </mxCell>
        <mxCell id="PVFEniCqXc0Eb_ZrgXYD-37" value="" style="image;sketch=0;aspect=fixed;html=1;points=[];align=center;fontSize=12;image=img/lib/mscae/Docker.svg;labelBackgroundColor=none;fillColor=#FAE5C7;strokeColor=#0F8B8D;fontColor=#143642;" vertex="1" parent="1">
          <mxGeometry x="560" y="568" width="50" height="41" as="geometry" />
        </mxCell>
        <mxCell id="PVFEniCqXc0Eb_ZrgXYD-39" value="&lt;b&gt;Resilience4J&lt;/b&gt;" style="text;html=1;align=center;verticalAlign=middle;whiteSpace=wrap;rounded=0;labelBackgroundColor=none;fontColor=#143642;" vertex="1" parent="1">
          <mxGeometry x="290" y="590" width="60" height="30" as="geometry" />
        </mxCell>
      </root>
    </mxGraphModel>
  </diagram>
</mxfile>
